<mxfile host="Electron" agent="Mozilla/5.0 (Windows NT 10.0; Win64; x64) AppleWebKit/537.36 (KHTML, like Gecko) draw.io/26.0.16 Chrome/132.0.6834.196 Electron/34.2.0 Safari/537.36" version="26.0.16" pages="6">
  <diagram name="Page-1" id="JD6xYYmYzcf4hpK9CV4v">
    <mxGraphModel dx="1235" dy="844" grid="1" gridSize="10" guides="1" tooltips="1" connect="1" arrows="1" fold="1" page="1" pageScale="1" pageWidth="827" pageHeight="1169" math="0" shadow="0">
      <root>
        <mxCell id="0" />
        <mxCell id="1" parent="0" />
        <mxCell id="3_Epr1_zHtTMZQ9kOwUO-1" style="edgeStyle=orthogonalEdgeStyle;rounded=0;orthogonalLoop=1;jettySize=auto;html=1;exitX=0;exitY=0.5;exitDx=0;exitDy=0;strokeColor=default;align=center;verticalAlign=middle;fontFamily=Helvetica;fontSize=11;fontColor=default;labelBackgroundColor=default;startArrow=none;startFill=0;endArrow=oval;endFill=0;entryX=0;entryY=0.5;entryDx=0;entryDy=0;" parent="1" source="3_Epr1_zHtTMZQ9kOwUO-2" target="3_Epr1_zHtTMZQ9kOwUO-17" edge="1">
          <mxGeometry relative="1" as="geometry" />
        </mxCell>
        <mxCell id="3_Epr1_zHtTMZQ9kOwUO-2" value="FILM" style="rounded=0;whiteSpace=wrap;html=1;" parent="1" vertex="1">
          <mxGeometry x="45" y="200" width="90" height="40" as="geometry" />
        </mxCell>
        <mxCell id="3_Epr1_zHtTMZQ9kOwUO-3" value="&lt;div&gt;recitato da&lt;/div&gt;" style="shape=rhombus;perimeter=rhombusPerimeter;whiteSpace=wrap;html=1;align=center;" parent="1" vertex="1">
          <mxGeometry x="245" y="190" width="120" height="60" as="geometry" />
        </mxCell>
        <mxCell id="3_Epr1_zHtTMZQ9kOwUO-4" value="&lt;div&gt;ATTORI&lt;/div&gt;" style="whiteSpace=wrap;html=1;align=center;" parent="1" vertex="1">
          <mxGeometry x="435" y="200" width="100" height="40" as="geometry" />
        </mxCell>
        <mxCell id="3_Epr1_zHtTMZQ9kOwUO-5" value="" style="endArrow=none;html=1;rounded=0;exitX=1;exitY=0.5;exitDx=0;exitDy=0;" parent="1" source="3_Epr1_zHtTMZQ9kOwUO-2" edge="1">
          <mxGeometry relative="1" as="geometry">
            <mxPoint x="145" y="210" as="sourcePoint" />
            <mxPoint x="245" y="220" as="targetPoint" />
          </mxGeometry>
        </mxCell>
        <mxCell id="3_Epr1_zHtTMZQ9kOwUO-6" value="&lt;div&gt;(1,n)&lt;/div&gt;" style="edgeLabel;html=1;align=center;verticalAlign=middle;resizable=0;points=[];" parent="3_Epr1_zHtTMZQ9kOwUO-5" connectable="0" vertex="1">
          <mxGeometry x="0.6364" y="-4" relative="1" as="geometry">
            <mxPoint x="-40" y="-4" as="offset" />
          </mxGeometry>
        </mxCell>
        <mxCell id="3_Epr1_zHtTMZQ9kOwUO-7" style="edgeStyle=orthogonalEdgeStyle;rounded=0;orthogonalLoop=1;jettySize=auto;html=1;entryX=1;entryY=0.5;entryDx=0;entryDy=0;exitX=0;exitY=0.5;exitDx=0;exitDy=0;endArrow=none;endFill=0;" parent="1" source="3_Epr1_zHtTMZQ9kOwUO-4" target="3_Epr1_zHtTMZQ9kOwUO-3" edge="1">
          <mxGeometry relative="1" as="geometry" />
        </mxCell>
        <mxCell id="3_Epr1_zHtTMZQ9kOwUO-8" value="&lt;div&gt;(1,n)&lt;/div&gt;" style="edgeLabel;html=1;align=center;verticalAlign=middle;resizable=0;points=[];" parent="3_Epr1_zHtTMZQ9kOwUO-7" connectable="0" vertex="1">
          <mxGeometry x="0.3429" relative="1" as="geometry">
            <mxPoint x="6" as="offset" />
          </mxGeometry>
        </mxCell>
        <mxCell id="3_Epr1_zHtTMZQ9kOwUO-9" style="edgeStyle=orthogonalEdgeStyle;rounded=0;orthogonalLoop=1;jettySize=auto;html=1;entryX=1;entryY=0.5;entryDx=0;entryDy=0;endArrow=none;endFill=0;startArrow=oval;startFill=0;" parent="1" source="3_Epr1_zHtTMZQ9kOwUO-10" target="3_Epr1_zHtTMZQ9kOwUO-4" edge="1">
          <mxGeometry relative="1" as="geometry">
            <Array as="points">
              <mxPoint x="550" y="185" />
              <mxPoint x="550" y="220" />
            </Array>
          </mxGeometry>
        </mxCell>
        <mxCell id="3_Epr1_zHtTMZQ9kOwUO-10" value="cognome" style="text;strokeColor=none;fillColor=none;spacingLeft=4;spacingRight=4;overflow=hidden;rotatable=0;points=[[0,0.5],[1,0.5]];portConstraint=eastwest;fontSize=12;whiteSpace=wrap;html=1;" parent="1" vertex="1">
          <mxGeometry x="585" y="170" width="60" height="30" as="geometry" />
        </mxCell>
        <mxCell id="3_Epr1_zHtTMZQ9kOwUO-11" style="edgeStyle=orthogonalEdgeStyle;rounded=0;orthogonalLoop=1;jettySize=auto;html=1;entryX=1;entryY=0.5;entryDx=0;entryDy=0;startArrow=oval;startFill=0;endArrow=none;endFill=0;" parent="1" source="3_Epr1_zHtTMZQ9kOwUO-12" target="3_Epr1_zHtTMZQ9kOwUO-4" edge="1">
          <mxGeometry relative="1" as="geometry">
            <Array as="points">
              <mxPoint x="550" y="245" />
              <mxPoint x="550" y="220" />
            </Array>
          </mxGeometry>
        </mxCell>
        <mxCell id="3_Epr1_zHtTMZQ9kOwUO-12" value="&lt;div&gt;nome&lt;/div&gt;" style="text;strokeColor=none;fillColor=none;spacingLeft=4;spacingRight=4;overflow=hidden;rotatable=0;points=[[0,0.5],[1,0.5]];portConstraint=eastwest;fontSize=12;whiteSpace=wrap;html=1;" parent="1" vertex="1">
          <mxGeometry x="587" y="230" width="60" height="30" as="geometry" />
        </mxCell>
        <mxCell id="3_Epr1_zHtTMZQ9kOwUO-13" style="edgeStyle=orthogonalEdgeStyle;rounded=0;orthogonalLoop=1;jettySize=auto;html=1;entryX=0;entryY=0.5;entryDx=0;entryDy=0;strokeColor=default;align=center;verticalAlign=middle;fontFamily=Helvetica;fontSize=11;fontColor=default;labelBackgroundColor=default;startArrow=oval;startFill=1;endArrow=none;endFill=0;exitX=0;exitY=0.5;exitDx=0;exitDy=0;" parent="1" source="3_Epr1_zHtTMZQ9kOwUO-14" target="3_Epr1_zHtTMZQ9kOwUO-2" edge="1">
          <mxGeometry relative="1" as="geometry" />
        </mxCell>
        <mxCell id="3_Epr1_zHtTMZQ9kOwUO-14" value="titolo" style="text;strokeColor=none;fillColor=none;spacingLeft=4;spacingRight=4;overflow=hidden;rotatable=0;points=[[0,0.5],[1,0.5]];portConstraint=eastwest;fontSize=12;whiteSpace=wrap;html=1;" parent="1" vertex="1">
          <mxGeometry x="45" y="40" width="40" height="30" as="geometry" />
        </mxCell>
        <mxCell id="3_Epr1_zHtTMZQ9kOwUO-15" style="edgeStyle=orthogonalEdgeStyle;rounded=0;orthogonalLoop=1;jettySize=auto;html=1;entryX=0;entryY=0.5;entryDx=0;entryDy=0;exitX=0;exitY=0.5;exitDx=0;exitDy=0;startArrow=oval;startFill=0;endArrow=none;endFill=0;" parent="1" source="3_Epr1_zHtTMZQ9kOwUO-16" target="3_Epr1_zHtTMZQ9kOwUO-2" edge="1">
          <mxGeometry relative="1" as="geometry" />
        </mxCell>
        <mxCell id="3_Epr1_zHtTMZQ9kOwUO-16" value="anno" style="text;strokeColor=none;fillColor=none;spacingLeft=4;spacingRight=4;overflow=hidden;rotatable=0;points=[[0,0.5],[1,0.5]];portConstraint=eastwest;fontSize=12;whiteSpace=wrap;html=1;" parent="1" vertex="1">
          <mxGeometry x="45" y="55" width="40" height="30" as="geometry" />
        </mxCell>
        <mxCell id="3_Epr1_zHtTMZQ9kOwUO-17" value="nazione" style="text;strokeColor=none;fillColor=none;spacingLeft=4;spacingRight=4;overflow=hidden;rotatable=0;points=[[0,0.5],[1,0.5]];portConstraint=eastwest;fontSize=11;whiteSpace=wrap;html=1;fontFamily=Helvetica;fontColor=default;labelBackgroundColor=default;" parent="1" vertex="1">
          <mxGeometry x="45" y="70" width="60" height="30" as="geometry" />
        </mxCell>
        <mxCell id="3_Epr1_zHtTMZQ9kOwUO-18" style="edgeStyle=orthogonalEdgeStyle;rounded=0;orthogonalLoop=1;jettySize=auto;html=1;entryX=0;entryY=0.5;entryDx=0;entryDy=0;exitX=0;exitY=0.5;exitDx=0;exitDy=0;endArrow=none;endFill=0;startArrow=oval;startFill=0;" parent="1" source="3_Epr1_zHtTMZQ9kOwUO-19" target="3_Epr1_zHtTMZQ9kOwUO-2" edge="1">
          <mxGeometry relative="1" as="geometry" />
        </mxCell>
        <mxCell id="3_Epr1_zHtTMZQ9kOwUO-19" value="&lt;div&gt;durata&lt;/div&gt;" style="text;strokeColor=none;fillColor=none;spacingLeft=4;spacingRight=4;overflow=hidden;rotatable=0;points=[[0,0.5],[1,0.5]];portConstraint=eastwest;fontSize=12;whiteSpace=wrap;html=1;" parent="1" vertex="1">
          <mxGeometry x="45" y="85" width="60" height="30" as="geometry" />
        </mxCell>
        <mxCell id="3_Epr1_zHtTMZQ9kOwUO-20" style="edgeStyle=orthogonalEdgeStyle;rounded=0;orthogonalLoop=1;jettySize=auto;html=1;entryX=0;entryY=0.5;entryDx=0;entryDy=0;endArrow=none;endFill=0;startArrow=none;startFill=0;" parent="1" source="3_Epr1_zHtTMZQ9kOwUO-21" target="3_Epr1_zHtTMZQ9kOwUO-2" edge="1">
          <mxGeometry relative="1" as="geometry" />
        </mxCell>
        <mxCell id="3_Epr1_zHtTMZQ9kOwUO-21" value="&lt;div&gt;registra&lt;/div&gt;" style="ellipse;whiteSpace=wrap;html=1;align=center;" parent="1" vertex="1">
          <mxGeometry x="40" y="130" width="100" height="40" as="geometry" />
        </mxCell>
        <mxCell id="3_Epr1_zHtTMZQ9kOwUO-22" style="edgeStyle=orthogonalEdgeStyle;rounded=0;orthogonalLoop=1;jettySize=auto;html=1;entryX=1;entryY=0.5;entryDx=0;entryDy=0;endArrow=none;endFill=0;startArrow=oval;startFill=0;" parent="1" source="3_Epr1_zHtTMZQ9kOwUO-23" target="3_Epr1_zHtTMZQ9kOwUO-21" edge="1">
          <mxGeometry relative="1" as="geometry" />
        </mxCell>
        <mxCell id="3_Epr1_zHtTMZQ9kOwUO-23" value="cognome" style="text;strokeColor=none;fillColor=none;spacingLeft=4;spacingRight=4;overflow=hidden;rotatable=0;points=[[0,0.5],[1,0.5]];portConstraint=eastwest;fontSize=12;whiteSpace=wrap;html=1;" parent="1" vertex="1">
          <mxGeometry x="165" y="115" width="60" height="30" as="geometry" />
        </mxCell>
        <mxCell id="3_Epr1_zHtTMZQ9kOwUO-24" style="edgeStyle=orthogonalEdgeStyle;rounded=0;orthogonalLoop=1;jettySize=auto;html=1;entryX=0;entryY=0.5;entryDx=0;entryDy=0;" parent="1" edge="1">
          <mxGeometry relative="1" as="geometry">
            <mxPoint x="50" y="285" as="sourcePoint" />
            <mxPoint x="50" y="285" as="targetPoint" />
          </mxGeometry>
        </mxCell>
        <mxCell id="3_Epr1_zHtTMZQ9kOwUO-25" style="edgeStyle=orthogonalEdgeStyle;rounded=0;orthogonalLoop=1;jettySize=auto;html=1;entryX=0;entryY=0.5;entryDx=0;entryDy=0;exitX=0;exitY=0.5;exitDx=0;exitDy=0;startArrow=oval;startFill=0;endArrow=none;endFill=0;" parent="1" source="3_Epr1_zHtTMZQ9kOwUO-26" target="3_Epr1_zHtTMZQ9kOwUO-2" edge="1">
          <mxGeometry relative="1" as="geometry" />
        </mxCell>
        <mxCell id="3_Epr1_zHtTMZQ9kOwUO-26" value="&lt;div&gt;genere&lt;/div&gt;" style="text;strokeColor=none;fillColor=none;spacingLeft=4;spacingRight=4;overflow=hidden;rotatable=0;points=[[0,0.5],[1,0.5]];portConstraint=eastwest;fontSize=12;whiteSpace=wrap;html=1;" parent="1" vertex="1">
          <mxGeometry x="45" y="100" width="60" height="30" as="geometry" />
        </mxCell>
        <mxCell id="3_Epr1_zHtTMZQ9kOwUO-27" style="edgeStyle=orthogonalEdgeStyle;rounded=0;orthogonalLoop=1;jettySize=auto;html=1;entryX=1;entryY=0.5;entryDx=0;entryDy=0;endArrow=none;endFill=0;startArrow=oval;startFill=0;" parent="1" source="3_Epr1_zHtTMZQ9kOwUO-28" target="3_Epr1_zHtTMZQ9kOwUO-21" edge="1">
          <mxGeometry relative="1" as="geometry" />
        </mxCell>
        <mxCell id="3_Epr1_zHtTMZQ9kOwUO-28" value="nome" style="text;strokeColor=none;fillColor=none;spacingLeft=4;spacingRight=4;overflow=hidden;rotatable=0;points=[[0,0.5],[1,0.5]];portConstraint=eastwest;fontSize=12;whiteSpace=wrap;html=1;" parent="1" vertex="1">
          <mxGeometry x="165" y="154" width="60" height="30" as="geometry" />
        </mxCell>
        <mxCell id="3_Epr1_zHtTMZQ9kOwUO-29" style="edgeStyle=orthogonalEdgeStyle;rounded=0;orthogonalLoop=1;jettySize=auto;html=1;exitX=0.5;exitY=0;exitDx=0;exitDy=0;entryX=0.5;entryY=1;entryDx=0;entryDy=0;endArrow=none;endFill=0;" parent="1" source="3_Epr1_zHtTMZQ9kOwUO-36" target="3_Epr1_zHtTMZQ9kOwUO-2" edge="1">
          <mxGeometry relative="1" as="geometry">
            <mxPoint x="90" y="285" as="sourcePoint" />
          </mxGeometry>
        </mxCell>
        <mxCell id="3_Epr1_zHtTMZQ9kOwUO-32" style="edgeStyle=orthogonalEdgeStyle;rounded=0;orthogonalLoop=1;jettySize=auto;html=1;endArrow=oval;endFill=0;entryX=0;entryY=0.5;entryDx=0;entryDy=0;exitX=1;exitY=0.5;exitDx=0;exitDy=0;" parent="1" edge="1">
          <mxGeometry relative="1" as="geometry">
            <mxPoint x="132.9999999999999" y="299.99999999999994" as="sourcePoint" />
            <mxPoint x="198" y="289.99999999999994" as="targetPoint" />
            <Array as="points">
              <mxPoint x="168" y="300" />
              <mxPoint x="168" y="290" />
            </Array>
          </mxGeometry>
        </mxCell>
        <mxCell id="3_Epr1_zHtTMZQ9kOwUO-33" value="&lt;div&gt;voto (0,1)&lt;/div&gt;" style="text;strokeColor=none;fillColor=none;spacingLeft=4;spacingRight=4;overflow=hidden;rotatable=0;points=[[0,0.5],[1,0.5]];portConstraint=eastwest;fontSize=12;whiteSpace=wrap;html=1;" parent="1" vertex="1">
          <mxGeometry x="200" y="275" width="70" height="30" as="geometry" />
        </mxCell>
        <mxCell id="3_Epr1_zHtTMZQ9kOwUO-34" value="recensione (0,1)" style="text;strokeColor=none;fillColor=none;spacingLeft=4;spacingRight=4;overflow=hidden;rotatable=0;points=[[0,0.5],[1,0.5]];portConstraint=eastwest;fontSize=12;whiteSpace=wrap;html=1;" parent="1" vertex="1">
          <mxGeometry x="201" y="296" width="109" height="30" as="geometry" />
        </mxCell>
        <mxCell id="3_Epr1_zHtTMZQ9kOwUO-35" value="" style="html=1;verticalAlign=bottom;startArrow=oval;startFill=1;endArrow=none;startSize=8;curved=0;rounded=0;endFill=0;" parent="1" edge="1">
          <mxGeometry width="60" relative="1" as="geometry">
            <mxPoint x="565" y="267.47" as="sourcePoint" />
            <mxPoint x="565" y="170.00164556962025" as="targetPoint" />
          </mxGeometry>
        </mxCell>
        <mxCell id="3_Epr1_zHtTMZQ9kOwUO-36" value="valutazione" style="ellipse;whiteSpace=wrap;html=1;" parent="1" vertex="1">
          <mxGeometry x="45" y="280" width="90" height="40" as="geometry" />
        </mxCell>
        <mxCell id="qMljJaArBJRdGHCxj3a8-2" style="edgeStyle=orthogonalEdgeStyle;rounded=0;orthogonalLoop=1;jettySize=auto;html=1;exitX=1;exitY=0.5;exitDx=0;exitDy=0;endArrow=oval;endFill=0;" edge="1" parent="1" source="3_Epr1_zHtTMZQ9kOwUO-36" target="3_Epr1_zHtTMZQ9kOwUO-34">
          <mxGeometry relative="1" as="geometry" />
        </mxCell>
        <mxCell id="qMljJaArBJRdGHCxj3a8-3" value="&lt;h1 style=&quot;margin-top: 0px;&quot;&gt;&lt;span style=&quot;background-color: transparent; color: light-dark(rgb(0, 0, 0), rgb(255, 255, 255));&quot;&gt;Vincoli&lt;/span&gt;&lt;/h1&gt;&lt;div&gt;&lt;span style=&quot;background-color: transparent; color: light-dark(rgb(0, 0, 0), rgb(255, 255, 255));&quot;&gt;V1: ogni film deve essere recitato da almeno un attore&lt;/span&gt;&lt;/div&gt;" style="text;html=1;whiteSpace=wrap;overflow=hidden;rounded=0;" vertex="1" parent="1">
          <mxGeometry x="40" y="360" width="390" height="80" as="geometry" />
        </mxCell>
        <mxCell id="qMljJaArBJRdGHCxj3a8-4" value="&lt;h1 style=&quot;margin-top: 0px;&quot;&gt;Dizionario delle entità&lt;/h1&gt;" style="text;html=1;whiteSpace=wrap;overflow=hidden;rounded=0;" vertex="1" parent="1">
          <mxGeometry x="40" y="450" width="520" height="40" as="geometry" />
        </mxCell>
        <mxCell id="qMljJaArBJRdGHCxj3a8-5" value="" style="shape=table;startSize=0;container=1;collapsible=0;childLayout=tableLayout;fontSize=16;" vertex="1" parent="1">
          <mxGeometry x="45" y="490" width="780" height="140.00000000000023" as="geometry" />
        </mxCell>
        <mxCell id="qMljJaArBJRdGHCxj3a8-6" value="" style="shape=tableRow;horizontal=0;startSize=0;swimlaneHead=0;swimlaneBody=0;strokeColor=inherit;top=0;left=0;bottom=0;right=0;collapsible=0;dropTarget=0;fillColor=none;points=[[0,0.5],[1,0.5]];portConstraint=eastwest;fontSize=16;" vertex="1" parent="qMljJaArBJRdGHCxj3a8-5">
          <mxGeometry width="780" height="40" as="geometry" />
        </mxCell>
        <mxCell id="qMljJaArBJRdGHCxj3a8-7" value="Nome" style="shape=partialRectangle;html=1;whiteSpace=wrap;connectable=0;strokeColor=inherit;overflow=hidden;fillColor=none;top=0;left=0;bottom=0;right=0;pointerEvents=1;fontSize=12;align=left;fontStyle=1" vertex="1" parent="qMljJaArBJRdGHCxj3a8-6">
          <mxGeometry width="195" height="40" as="geometry">
            <mxRectangle width="195" height="40" as="alternateBounds" />
          </mxGeometry>
        </mxCell>
        <mxCell id="qMljJaArBJRdGHCxj3a8-8" value="&lt;b&gt;Descrizione&lt;/b&gt;" style="shape=partialRectangle;html=1;whiteSpace=wrap;connectable=0;strokeColor=inherit;overflow=hidden;fillColor=none;top=0;left=0;bottom=0;right=0;pointerEvents=1;fontSize=12;align=left;" vertex="1" parent="qMljJaArBJRdGHCxj3a8-6">
          <mxGeometry x="195" width="195" height="40" as="geometry">
            <mxRectangle width="195" height="40" as="alternateBounds" />
          </mxGeometry>
        </mxCell>
        <mxCell id="qMljJaArBJRdGHCxj3a8-9" value="Attributi" style="shape=partialRectangle;html=1;whiteSpace=wrap;connectable=0;strokeColor=inherit;overflow=hidden;fillColor=none;top=0;left=0;bottom=0;right=0;pointerEvents=1;fontSize=12;fontStyle=1;align=left;" vertex="1" parent="qMljJaArBJRdGHCxj3a8-6">
          <mxGeometry x="390" width="195" height="40" as="geometry">
            <mxRectangle width="195" height="40" as="alternateBounds" />
          </mxGeometry>
        </mxCell>
        <mxCell id="qMljJaArBJRdGHCxj3a8-18" value="Identificatori" style="shape=partialRectangle;html=1;whiteSpace=wrap;connectable=0;strokeColor=inherit;overflow=hidden;fillColor=none;top=0;left=0;bottom=0;right=0;pointerEvents=1;fontSize=12;fontStyle=1;align=left;" vertex="1" parent="qMljJaArBJRdGHCxj3a8-6">
          <mxGeometry x="585" width="195" height="40" as="geometry">
            <mxRectangle width="195" height="40" as="alternateBounds" />
          </mxGeometry>
        </mxCell>
        <mxCell id="qMljJaArBJRdGHCxj3a8-10" value="" style="shape=tableRow;horizontal=0;startSize=0;swimlaneHead=0;swimlaneBody=0;strokeColor=inherit;top=0;left=0;bottom=0;right=0;collapsible=0;dropTarget=0;fillColor=none;points=[[0,0.5],[1,0.5]];portConstraint=eastwest;fontSize=16;" vertex="1" parent="qMljJaArBJRdGHCxj3a8-5">
          <mxGeometry y="40" width="780" height="60" as="geometry" />
        </mxCell>
        <mxCell id="qMljJaArBJRdGHCxj3a8-11" value="Film" style="shape=partialRectangle;html=1;whiteSpace=wrap;connectable=0;strokeColor=inherit;overflow=hidden;fillColor=none;top=0;left=0;bottom=0;right=0;pointerEvents=1;fontSize=12;align=left;" vertex="1" parent="qMljJaArBJRdGHCxj3a8-10">
          <mxGeometry width="195" height="60" as="geometry">
            <mxRectangle width="195" height="60" as="alternateBounds" />
          </mxGeometry>
        </mxCell>
        <mxCell id="qMljJaArBJRdGHCxj3a8-12" value="&lt;font style=&quot;font-size: 12px;&quot;&gt;Contiene tutti i film&lt;/font&gt;" style="shape=partialRectangle;html=1;whiteSpace=wrap;connectable=0;strokeColor=inherit;overflow=hidden;fillColor=none;top=0;left=0;bottom=0;right=0;pointerEvents=1;fontSize=16;align=left;" vertex="1" parent="qMljJaArBJRdGHCxj3a8-10">
          <mxGeometry x="195" width="195" height="60" as="geometry">
            <mxRectangle width="195" height="60" as="alternateBounds" />
          </mxGeometry>
        </mxCell>
        <mxCell id="qMljJaArBJRdGHCxj3a8-13" value="registra composto da nome e cognome, valutazione composto da voto e recensione" style="shape=partialRectangle;html=1;whiteSpace=wrap;connectable=0;strokeColor=inherit;overflow=hidden;fillColor=none;top=0;left=0;bottom=0;right=0;pointerEvents=1;fontSize=12;align=left;" vertex="1" parent="qMljJaArBJRdGHCxj3a8-10">
          <mxGeometry x="390" width="195" height="60" as="geometry">
            <mxRectangle width="195" height="60" as="alternateBounds" />
          </mxGeometry>
        </mxCell>
        <mxCell id="qMljJaArBJRdGHCxj3a8-19" value="titolo" style="shape=partialRectangle;html=1;whiteSpace=wrap;connectable=0;strokeColor=inherit;overflow=hidden;fillColor=none;top=0;left=0;bottom=0;right=0;pointerEvents=1;fontSize=12;align=left;" vertex="1" parent="qMljJaArBJRdGHCxj3a8-10">
          <mxGeometry x="585" width="195" height="60" as="geometry">
            <mxRectangle width="195" height="60" as="alternateBounds" />
          </mxGeometry>
        </mxCell>
        <mxCell id="qMljJaArBJRdGHCxj3a8-14" value="" style="shape=tableRow;horizontal=0;startSize=0;swimlaneHead=0;swimlaneBody=0;strokeColor=inherit;top=0;left=0;bottom=0;right=0;collapsible=0;dropTarget=0;fillColor=none;points=[[0,0.5],[1,0.5]];portConstraint=eastwest;fontSize=16;" vertex="1" parent="qMljJaArBJRdGHCxj3a8-5">
          <mxGeometry y="100" width="780" height="40" as="geometry" />
        </mxCell>
        <mxCell id="qMljJaArBJRdGHCxj3a8-15" value="&lt;font style=&quot;font-size: 12px;&quot;&gt;Attori&lt;/font&gt;" style="shape=partialRectangle;html=1;whiteSpace=wrap;connectable=0;strokeColor=inherit;overflow=hidden;fillColor=none;top=0;left=0;bottom=0;right=0;pointerEvents=1;fontSize=16;align=left;" vertex="1" parent="qMljJaArBJRdGHCxj3a8-14">
          <mxGeometry width="195" height="40" as="geometry">
            <mxRectangle width="195" height="40" as="alternateBounds" />
          </mxGeometry>
        </mxCell>
        <mxCell id="qMljJaArBJRdGHCxj3a8-16" value="Contiene tutti gli attori" style="shape=partialRectangle;html=1;whiteSpace=wrap;connectable=0;strokeColor=inherit;overflow=hidden;fillColor=none;top=0;left=0;bottom=0;right=0;pointerEvents=1;fontSize=12;align=left;" vertex="1" parent="qMljJaArBJRdGHCxj3a8-14">
          <mxGeometry x="195" width="195" height="40" as="geometry">
            <mxRectangle width="195" height="40" as="alternateBounds" />
          </mxGeometry>
        </mxCell>
        <mxCell id="qMljJaArBJRdGHCxj3a8-17" value="" style="shape=partialRectangle;html=1;whiteSpace=wrap;connectable=0;strokeColor=inherit;overflow=hidden;fillColor=none;top=0;left=0;bottom=0;right=0;pointerEvents=1;fontSize=16;" vertex="1" parent="qMljJaArBJRdGHCxj3a8-14">
          <mxGeometry x="390" width="195" height="40" as="geometry">
            <mxRectangle width="195" height="40" as="alternateBounds" />
          </mxGeometry>
        </mxCell>
        <mxCell id="qMljJaArBJRdGHCxj3a8-20" value="{nome,cognome}" style="shape=partialRectangle;html=1;whiteSpace=wrap;connectable=0;strokeColor=inherit;overflow=hidden;fillColor=none;top=0;left=0;bottom=0;right=0;pointerEvents=1;fontSize=12;align=left;" vertex="1" parent="qMljJaArBJRdGHCxj3a8-14">
          <mxGeometry x="585" width="195" height="40" as="geometry">
            <mxRectangle width="195" height="40" as="alternateBounds" />
          </mxGeometry>
        </mxCell>
        <mxCell id="qMljJaArBJRdGHCxj3a8-21" value="&lt;h1 style=&quot;margin-top: 0px;&quot;&gt;Dizionario delle associazioni&lt;/h1&gt;" style="text;html=1;whiteSpace=wrap;overflow=hidden;rounded=0;" vertex="1" parent="1">
          <mxGeometry x="40" y="640" width="520" height="40" as="geometry" />
        </mxCell>
        <mxCell id="qMljJaArBJRdGHCxj3a8-22" value="" style="shape=table;startSize=0;container=1;collapsible=0;childLayout=tableLayout;fontSize=16;" vertex="1" parent="1">
          <mxGeometry x="45" y="680" width="780" height="100.00000000000023" as="geometry" />
        </mxCell>
        <mxCell id="qMljJaArBJRdGHCxj3a8-23" value="" style="shape=tableRow;horizontal=0;startSize=0;swimlaneHead=0;swimlaneBody=0;strokeColor=inherit;top=0;left=0;bottom=0;right=0;collapsible=0;dropTarget=0;fillColor=none;points=[[0,0.5],[1,0.5]];portConstraint=eastwest;fontSize=16;" vertex="1" parent="qMljJaArBJRdGHCxj3a8-22">
          <mxGeometry width="780" height="40" as="geometry" />
        </mxCell>
        <mxCell id="qMljJaArBJRdGHCxj3a8-24" value="Nome" style="shape=partialRectangle;html=1;whiteSpace=wrap;connectable=0;strokeColor=inherit;overflow=hidden;fillColor=none;top=0;left=0;bottom=0;right=0;pointerEvents=1;fontSize=12;align=left;fontStyle=1" vertex="1" parent="qMljJaArBJRdGHCxj3a8-23">
          <mxGeometry width="195" height="40" as="geometry">
            <mxRectangle width="195" height="40" as="alternateBounds" />
          </mxGeometry>
        </mxCell>
        <mxCell id="qMljJaArBJRdGHCxj3a8-25" value="&lt;b&gt;Descrizione&lt;/b&gt;" style="shape=partialRectangle;html=1;whiteSpace=wrap;connectable=0;strokeColor=inherit;overflow=hidden;fillColor=none;top=0;left=0;bottom=0;right=0;pointerEvents=1;fontSize=12;align=left;" vertex="1" parent="qMljJaArBJRdGHCxj3a8-23">
          <mxGeometry x="195" width="195" height="40" as="geometry">
            <mxRectangle width="195" height="40" as="alternateBounds" />
          </mxGeometry>
        </mxCell>
        <mxCell id="qMljJaArBJRdGHCxj3a8-26" value="Attributi" style="shape=partialRectangle;html=1;whiteSpace=wrap;connectable=0;strokeColor=inherit;overflow=hidden;fillColor=none;top=0;left=0;bottom=0;right=0;pointerEvents=1;fontSize=12;fontStyle=1;align=left;" vertex="1" parent="qMljJaArBJRdGHCxj3a8-23">
          <mxGeometry x="390" width="195" height="40" as="geometry">
            <mxRectangle width="195" height="40" as="alternateBounds" />
          </mxGeometry>
        </mxCell>
        <mxCell id="qMljJaArBJRdGHCxj3a8-27" value="Entità collegate" style="shape=partialRectangle;html=1;whiteSpace=wrap;connectable=0;strokeColor=inherit;overflow=hidden;fillColor=none;top=0;left=0;bottom=0;right=0;pointerEvents=1;fontSize=12;fontStyle=1;align=left;" vertex="1" parent="qMljJaArBJRdGHCxj3a8-23">
          <mxGeometry x="585" width="195" height="40" as="geometry">
            <mxRectangle width="195" height="40" as="alternateBounds" />
          </mxGeometry>
        </mxCell>
        <mxCell id="qMljJaArBJRdGHCxj3a8-28" value="" style="shape=tableRow;horizontal=0;startSize=0;swimlaneHead=0;swimlaneBody=0;strokeColor=inherit;top=0;left=0;bottom=0;right=0;collapsible=0;dropTarget=0;fillColor=none;points=[[0,0.5],[1,0.5]];portConstraint=eastwest;fontSize=16;" vertex="1" parent="qMljJaArBJRdGHCxj3a8-22">
          <mxGeometry y="40" width="780" height="60" as="geometry" />
        </mxCell>
        <mxCell id="qMljJaArBJRdGHCxj3a8-29" value="Recitato da" style="shape=partialRectangle;html=1;whiteSpace=wrap;connectable=0;strokeColor=inherit;overflow=hidden;fillColor=none;top=0;left=0;bottom=0;right=0;pointerEvents=1;fontSize=12;align=left;" vertex="1" parent="qMljJaArBJRdGHCxj3a8-28">
          <mxGeometry width="195" height="60" as="geometry">
            <mxRectangle width="195" height="60" as="alternateBounds" />
          </mxGeometry>
        </mxCell>
        <mxCell id="qMljJaArBJRdGHCxj3a8-30" value="&lt;span style=&quot;font-size: 12px;&quot;&gt;Mette in relazione i film e gli attori che recitano nel film&lt;/span&gt;" style="shape=partialRectangle;html=1;whiteSpace=wrap;connectable=0;strokeColor=inherit;overflow=hidden;fillColor=none;top=0;left=0;bottom=0;right=0;pointerEvents=1;fontSize=16;align=left;" vertex="1" parent="qMljJaArBJRdGHCxj3a8-28">
          <mxGeometry x="195" width="195" height="60" as="geometry">
            <mxRectangle width="195" height="60" as="alternateBounds" />
          </mxGeometry>
        </mxCell>
        <mxCell id="qMljJaArBJRdGHCxj3a8-31" value="" style="shape=partialRectangle;html=1;whiteSpace=wrap;connectable=0;strokeColor=inherit;overflow=hidden;fillColor=none;top=0;left=0;bottom=0;right=0;pointerEvents=1;fontSize=12;align=left;" vertex="1" parent="qMljJaArBJRdGHCxj3a8-28">
          <mxGeometry x="390" width="195" height="60" as="geometry">
            <mxRectangle width="195" height="60" as="alternateBounds" />
          </mxGeometry>
        </mxCell>
        <mxCell id="qMljJaArBJRdGHCxj3a8-32" value="film, attori" style="shape=partialRectangle;html=1;whiteSpace=wrap;connectable=0;strokeColor=inherit;overflow=hidden;fillColor=none;top=0;left=0;bottom=0;right=0;pointerEvents=1;fontSize=12;align=left;" vertex="1" parent="qMljJaArBJRdGHCxj3a8-28">
          <mxGeometry x="585" width="195" height="60" as="geometry">
            <mxRectangle width="195" height="60" as="alternateBounds" />
          </mxGeometry>
        </mxCell>
        <mxCell id="rV3kMzm3VywqCpNMBBsA-2" value="&lt;h1 style=&quot;margin-top: 0px;&quot;&gt;Esercizio 1&lt;/h1&gt;" style="text;html=1;whiteSpace=wrap;overflow=hidden;rounded=0;fontFamily=Helvetica;fontSize=12;fontColor=default;align=right;" vertex="1" parent="1">
          <mxGeometry x="676" y="3" width="140" height="40" as="geometry" />
        </mxCell>
      </root>
    </mxGraphModel>
  </diagram>
  <diagram id="9VBiwDWCLfCJUnLLYc3l" name="Page-2">
    <mxGraphModel dx="1235" dy="844" grid="1" gridSize="10" guides="1" tooltips="1" connect="1" arrows="1" fold="1" page="1" pageScale="1" pageWidth="827" pageHeight="1169" math="0" shadow="0">
      <root>
        <mxCell id="0" />
        <mxCell id="1" parent="0" />
        <mxCell id="Mto5CnqZorz9CQpdkd3U-3" style="edgeStyle=orthogonalEdgeStyle;rounded=0;orthogonalLoop=1;jettySize=auto;html=1;exitX=1;exitY=0.5;exitDx=0;exitDy=0;entryX=0;entryY=0.5;entryDx=0;entryDy=0;fontFamily=Helvetica;fontSize=12;fontColor=default;endArrow=none;startFill=0;" edge="1" parent="1" source="yE04mt_5PItn41XKsMXE-1" target="Mto5CnqZorz9CQpdkd3U-2">
          <mxGeometry relative="1" as="geometry">
            <Array as="points">
              <mxPoint x="210" y="240" />
              <mxPoint x="210" y="240" />
            </Array>
          </mxGeometry>
        </mxCell>
        <mxCell id="Mto5CnqZorz9CQpdkd3U-4" value="(1,n)" style="edgeLabel;html=1;align=center;verticalAlign=middle;resizable=0;points=[];pointerEvents=1;strokeColor=inherit;fontFamily=Helvetica;fontSize=12;fontColor=default;fillColor=none;" vertex="1" connectable="0" parent="Mto5CnqZorz9CQpdkd3U-3">
          <mxGeometry x="0.0467" y="-2" relative="1" as="geometry">
            <mxPoint as="offset" />
          </mxGeometry>
        </mxCell>
        <mxCell id="yE04mt_5PItn41XKsMXE-1" value="CINEMA" style="whiteSpace=wrap;html=1;align=center;" parent="1" vertex="1">
          <mxGeometry x="40" y="220" width="100" height="40" as="geometry" />
        </mxCell>
        <mxCell id="Mto5CnqZorz9CQpdkd3U-12" style="edgeStyle=orthogonalEdgeStyle;rounded=0;orthogonalLoop=1;jettySize=auto;html=1;entryX=0.5;entryY=0;entryDx=0;entryDy=0;fontFamily=Helvetica;fontSize=12;fontColor=default;endArrow=none;startFill=1;startArrow=oval;" edge="1" parent="1" source="yE04mt_5PItn41XKsMXE-8" target="yE04mt_5PItn41XKsMXE-1">
          <mxGeometry relative="1" as="geometry">
            <Array as="points">
              <mxPoint x="90" y="50" />
            </Array>
          </mxGeometry>
        </mxCell>
        <mxCell id="yE04mt_5PItn41XKsMXE-8" value="nome" style="text;html=1;align=left;verticalAlign=middle;whiteSpace=wrap;rounded=0;spacingRight=0;spacingLeft=4;" parent="1" vertex="1">
          <mxGeometry x="120" y="40" width="50" height="20" as="geometry" />
        </mxCell>
        <mxCell id="rZIc_n3WS-ofRTLqjPyd-20" style="edgeStyle=orthogonalEdgeStyle;rounded=0;orthogonalLoop=1;jettySize=auto;html=1;fontFamily=Helvetica;fontSize=12;fontColor=default;endArrow=oval;endFill=0;exitX=1;exitY=0.5;exitDx=0;exitDy=0;" edge="1" parent="1" source="Mto5CnqZorz9CQpdkd3U-6" target="yE04mt_5PItn41XKsMXE-17">
          <mxGeometry relative="1" as="geometry">
            <Array as="points">
              <mxPoint x="530" y="240" />
              <mxPoint x="530" y="210" />
            </Array>
          </mxGeometry>
        </mxCell>
        <mxCell id="yE04mt_5PItn41XKsMXE-17" value="nome" style="text;html=1;align=left;verticalAlign=middle;whiteSpace=wrap;rounded=0;spacingLeft=4;" parent="1" vertex="1">
          <mxGeometry x="565" y="200" width="40" height="20" as="geometry" />
        </mxCell>
        <mxCell id="Mto5CnqZorz9CQpdkd3U-1" value="&lt;h1 style=&quot;margin-top: 0px;&quot;&gt;Esercizio 2&lt;/h1&gt;" style="text;html=1;whiteSpace=wrap;overflow=hidden;rounded=0;fontFamily=Helvetica;fontSize=12;fontColor=default;align=right;" vertex="1" parent="1">
          <mxGeometry x="676" y="3" width="140" height="40" as="geometry" />
        </mxCell>
        <mxCell id="Mto5CnqZorz9CQpdkd3U-2" value="possiede" style="rhombus;whiteSpace=wrap;html=1;pointerEvents=1;strokeColor=inherit;align=center;verticalAlign=middle;fontFamily=Helvetica;fontSize=12;fontColor=default;fillColor=none;" vertex="1" parent="1">
          <mxGeometry x="260" y="210" width="80" height="60" as="geometry" />
        </mxCell>
        <mxCell id="Mto5CnqZorz9CQpdkd3U-7" style="edgeStyle=orthogonalEdgeStyle;rounded=0;orthogonalLoop=1;jettySize=auto;html=1;fontFamily=Helvetica;fontSize=12;fontColor=default;endArrow=none;startFill=0;" edge="1" parent="1" source="Mto5CnqZorz9CQpdkd3U-6" target="Mto5CnqZorz9CQpdkd3U-2">
          <mxGeometry relative="1" as="geometry" />
        </mxCell>
        <mxCell id="Mto5CnqZorz9CQpdkd3U-8" value="(1,1)" style="edgeLabel;html=1;align=center;verticalAlign=middle;resizable=0;points=[];pointerEvents=1;strokeColor=inherit;fontFamily=Helvetica;fontSize=12;fontColor=default;fillColor=none;" vertex="1" connectable="0" parent="Mto5CnqZorz9CQpdkd3U-7">
          <mxGeometry x="0.4057" y="-1" relative="1" as="geometry">
            <mxPoint x="9" y="1" as="offset" />
          </mxGeometry>
        </mxCell>
        <mxCell id="Mto5CnqZorz9CQpdkd3U-6" value="SALE" style="whiteSpace=wrap;html=1;align=center;" vertex="1" parent="1">
          <mxGeometry x="410" y="220" width="100" height="40" as="geometry" />
        </mxCell>
        <mxCell id="Mto5CnqZorz9CQpdkd3U-11" style="edgeStyle=orthogonalEdgeStyle;rounded=0;orthogonalLoop=1;jettySize=auto;html=1;entryX=0.5;entryY=0;entryDx=0;entryDy=0;fontFamily=Helvetica;fontSize=12;fontColor=default;startArrow=oval;startFill=0;endArrow=none;" edge="1" parent="1" source="Mto5CnqZorz9CQpdkd3U-10" target="yE04mt_5PItn41XKsMXE-1">
          <mxGeometry relative="1" as="geometry">
            <Array as="points">
              <mxPoint x="90" y="70" />
            </Array>
          </mxGeometry>
        </mxCell>
        <mxCell id="Mto5CnqZorz9CQpdkd3U-10" value="numero di telefono" style="text;html=1;align=left;verticalAlign=middle;whiteSpace=wrap;rounded=0;spacingLeft=4;" vertex="1" parent="1">
          <mxGeometry x="120" y="60" width="120" height="20" as="geometry" />
        </mxCell>
        <mxCell id="rZIc_n3WS-ofRTLqjPyd-3" style="edgeStyle=orthogonalEdgeStyle;rounded=0;orthogonalLoop=1;jettySize=auto;html=1;entryX=0.5;entryY=0;entryDx=0;entryDy=0;fontFamily=Helvetica;fontSize=12;fontColor=default;endArrow=none;startFill=0;startArrow=oval;" edge="1" parent="1" source="Mto5CnqZorz9CQpdkd3U-13" target="yE04mt_5PItn41XKsMXE-1">
          <mxGeometry relative="1" as="geometry">
            <Array as="points">
              <mxPoint x="90" y="90" />
            </Array>
          </mxGeometry>
        </mxCell>
        <mxCell id="Mto5CnqZorz9CQpdkd3U-13" value="prezzo di ingresso" style="text;html=1;align=left;verticalAlign=middle;whiteSpace=wrap;rounded=0;spacingLeft=4;" vertex="1" parent="1">
          <mxGeometry x="120" y="80" width="120" height="20" as="geometry" />
        </mxCell>
        <mxCell id="rZIc_n3WS-ofRTLqjPyd-2" style="edgeStyle=orthogonalEdgeStyle;rounded=0;orthogonalLoop=1;jettySize=auto;html=1;entryX=0.5;entryY=0;entryDx=0;entryDy=0;fontFamily=Helvetica;fontSize=12;fontColor=default;endArrow=none;startFill=0;exitX=0;exitY=0.5;exitDx=0;exitDy=0;" edge="1" parent="1" source="rZIc_n3WS-ofRTLqjPyd-1" target="yE04mt_5PItn41XKsMXE-1">
          <mxGeometry relative="1" as="geometry">
            <Array as="points">
              <mxPoint x="90" y="140" />
            </Array>
          </mxGeometry>
        </mxCell>
        <mxCell id="rZIc_n3WS-ofRTLqjPyd-1" value="&lt;div&gt;indirizzo&lt;/div&gt;" style="ellipse;whiteSpace=wrap;html=1;align=center;" vertex="1" parent="1">
          <mxGeometry x="120" y="120" width="100" height="40" as="geometry" />
        </mxCell>
        <mxCell id="rZIc_n3WS-ofRTLqjPyd-8" style="edgeStyle=orthogonalEdgeStyle;rounded=0;orthogonalLoop=1;jettySize=auto;html=1;fontFamily=Helvetica;fontSize=12;fontColor=default;exitX=1;exitY=0.5;exitDx=0;exitDy=0;endArrow=oval;endFill=0;" edge="1" parent="1" source="rZIc_n3WS-ofRTLqjPyd-1" target="rZIc_n3WS-ofRTLqjPyd-4">
          <mxGeometry relative="1" as="geometry" />
        </mxCell>
        <mxCell id="rZIc_n3WS-ofRTLqjPyd-4" value="via" style="text;html=1;align=left;verticalAlign=middle;whiteSpace=wrap;rounded=0;spacingRight=0;spacingLeft=4;" vertex="1" parent="1">
          <mxGeometry x="260" y="100" width="50" height="20" as="geometry" />
        </mxCell>
        <mxCell id="rZIc_n3WS-ofRTLqjPyd-9" style="edgeStyle=orthogonalEdgeStyle;rounded=0;orthogonalLoop=1;jettySize=auto;html=1;fontFamily=Helvetica;fontSize=12;fontColor=default;exitX=1;exitY=0.5;exitDx=0;exitDy=0;endArrow=oval;endFill=0;" edge="1" parent="1" source="rZIc_n3WS-ofRTLqjPyd-1" target="rZIc_n3WS-ofRTLqjPyd-5">
          <mxGeometry relative="1" as="geometry" />
        </mxCell>
        <mxCell id="rZIc_n3WS-ofRTLqjPyd-5" value="numero" style="text;html=1;align=left;verticalAlign=middle;whiteSpace=wrap;rounded=0;spacingRight=0;spacingLeft=4;" vertex="1" parent="1">
          <mxGeometry x="260" y="120" width="50" height="20" as="geometry" />
        </mxCell>
        <mxCell id="rZIc_n3WS-ofRTLqjPyd-10" style="edgeStyle=orthogonalEdgeStyle;rounded=0;orthogonalLoop=1;jettySize=auto;html=1;fontFamily=Helvetica;fontSize=12;fontColor=default;endArrow=oval;endFill=0;exitX=1;exitY=0.5;exitDx=0;exitDy=0;" edge="1" parent="1" source="rZIc_n3WS-ofRTLqjPyd-1" target="rZIc_n3WS-ofRTLqjPyd-6">
          <mxGeometry relative="1" as="geometry" />
        </mxCell>
        <mxCell id="rZIc_n3WS-ofRTLqjPyd-6" value="città" style="text;html=1;align=left;verticalAlign=middle;whiteSpace=wrap;rounded=0;spacingRight=0;spacingLeft=4;" vertex="1" parent="1">
          <mxGeometry x="260" y="140" width="50" height="20" as="geometry" />
        </mxCell>
        <mxCell id="rZIc_n3WS-ofRTLqjPyd-12" style="edgeStyle=orthogonalEdgeStyle;rounded=0;orthogonalLoop=1;jettySize=auto;html=1;fontFamily=Helvetica;fontSize=12;fontColor=default;endArrow=oval;endFill=0;exitX=1;exitY=0.5;exitDx=0;exitDy=0;" edge="1" parent="1" source="rZIc_n3WS-ofRTLqjPyd-1" target="rZIc_n3WS-ofRTLqjPyd-7">
          <mxGeometry relative="1" as="geometry" />
        </mxCell>
        <mxCell id="rZIc_n3WS-ofRTLqjPyd-7" value="cap" style="text;html=1;align=left;verticalAlign=middle;whiteSpace=wrap;rounded=0;spacingRight=0;spacingLeft=4;" vertex="1" parent="1">
          <mxGeometry x="260" y="160" width="50" height="20" as="geometry" />
        </mxCell>
        <mxCell id="rZIc_n3WS-ofRTLqjPyd-21" style="edgeStyle=orthogonalEdgeStyle;rounded=0;orthogonalLoop=1;jettySize=auto;html=1;fontFamily=Helvetica;fontSize=12;fontColor=default;exitX=1;exitY=0.5;exitDx=0;exitDy=0;endArrow=oval;endFill=0;" edge="1" parent="1" source="Mto5CnqZorz9CQpdkd3U-6" target="rZIc_n3WS-ofRTLqjPyd-13">
          <mxGeometry relative="1" as="geometry">
            <Array as="points">
              <mxPoint x="530" y="240" />
              <mxPoint x="530" y="230" />
            </Array>
          </mxGeometry>
        </mxCell>
        <mxCell id="rZIc_n3WS-ofRTLqjPyd-13" value="posti" style="text;html=1;align=left;verticalAlign=middle;whiteSpace=wrap;rounded=0;spacingLeft=4;" vertex="1" parent="1">
          <mxGeometry x="565" y="220" width="40" height="20" as="geometry" />
        </mxCell>
        <mxCell id="rZIc_n3WS-ofRTLqjPyd-22" style="edgeStyle=orthogonalEdgeStyle;shape=connector;rounded=0;orthogonalLoop=1;jettySize=auto;html=1;strokeColor=default;align=center;verticalAlign=middle;fontFamily=Helvetica;fontSize=12;fontColor=default;labelBackgroundColor=default;endArrow=oval;endFill=0;exitX=1;exitY=0.5;exitDx=0;exitDy=0;" edge="1" parent="1" source="Mto5CnqZorz9CQpdkd3U-6" target="rZIc_n3WS-ofRTLqjPyd-14">
          <mxGeometry relative="1" as="geometry">
            <Array as="points">
              <mxPoint x="530" y="240" />
              <mxPoint x="530" y="250" />
            </Array>
          </mxGeometry>
        </mxCell>
        <mxCell id="rZIc_n3WS-ofRTLqjPyd-14" value="dimensione schermo" style="text;html=1;align=left;verticalAlign=middle;whiteSpace=wrap;rounded=0;spacingLeft=4;" vertex="1" parent="1">
          <mxGeometry x="565" y="240" width="160" height="20" as="geometry" />
        </mxCell>
        <mxCell id="rZIc_n3WS-ofRTLqjPyd-24" style="edgeStyle=orthogonalEdgeStyle;shape=connector;rounded=0;orthogonalLoop=1;jettySize=auto;html=1;strokeColor=default;align=center;verticalAlign=middle;fontFamily=Helvetica;fontSize=12;fontColor=default;labelBackgroundColor=default;endArrow=oval;endFill=0;exitX=1;exitY=0.5;exitDx=0;exitDy=0;" edge="1" parent="1" source="Mto5CnqZorz9CQpdkd3U-6" target="rZIc_n3WS-ofRTLqjPyd-18">
          <mxGeometry relative="1" as="geometry">
            <Array as="points">
              <mxPoint x="530" y="240" />
              <mxPoint x="530" y="270" />
            </Array>
          </mxGeometry>
        </mxCell>
        <mxCell id="rZIc_n3WS-ofRTLqjPyd-18" value="audio dolby" style="text;html=1;align=left;verticalAlign=middle;whiteSpace=wrap;rounded=0;spacingLeft=4;" vertex="1" parent="1">
          <mxGeometry x="565" y="260" width="95" height="20" as="geometry" />
        </mxCell>
        <mxCell id="rZIc_n3WS-ofRTLqjPyd-26" style="edgeStyle=orthogonalEdgeStyle;shape=connector;rounded=0;orthogonalLoop=1;jettySize=auto;html=1;strokeColor=default;align=center;verticalAlign=middle;fontFamily=Helvetica;fontSize=12;fontColor=default;labelBackgroundColor=default;endArrow=oval;endFill=0;exitX=1;exitY=0.5;exitDx=0;exitDy=0;" edge="1" parent="1" source="Mto5CnqZorz9CQpdkd3U-6" target="rZIc_n3WS-ofRTLqjPyd-19">
          <mxGeometry relative="1" as="geometry">
            <Array as="points">
              <mxPoint x="530" y="240" />
              <mxPoint x="530" y="290" />
            </Array>
          </mxGeometry>
        </mxCell>
        <mxCell id="rZIc_n3WS-ofRTLqjPyd-19" value="accesso disabili" style="text;html=1;align=left;verticalAlign=middle;whiteSpace=wrap;rounded=0;spacingLeft=4;" vertex="1" parent="1">
          <mxGeometry x="565" y="280" width="95" height="20" as="geometry" />
        </mxCell>
        <mxCell id="rZIc_n3WS-ofRTLqjPyd-28" value="" style="endArrow=oval;html=1;rounded=0;strokeColor=default;align=center;verticalAlign=middle;fontFamily=Helvetica;fontSize=12;fontColor=default;labelBackgroundColor=default;edgeStyle=orthogonalEdgeStyle;endFill=1;" edge="1" parent="1">
          <mxGeometry width="50" height="50" relative="1" as="geometry">
            <mxPoint x="240" y="270" as="sourcePoint" />
            <mxPoint x="550" y="220" as="targetPoint" />
            <Array as="points">
              <mxPoint x="240" y="200" />
              <mxPoint x="550" y="200" />
            </Array>
          </mxGeometry>
        </mxCell>
        <mxCell id="QL7Y_fwGTgnzgYnjwM4z-1" value="&lt;h1 style=&quot;margin-top: 0px;&quot;&gt;Dizionario delle entità&lt;/h1&gt;" style="text;html=1;whiteSpace=wrap;overflow=hidden;rounded=0;" vertex="1" parent="1">
          <mxGeometry x="40" y="410" width="520" height="40" as="geometry" />
        </mxCell>
        <mxCell id="QL7Y_fwGTgnzgYnjwM4z-2" value="" style="shape=table;startSize=0;container=1;collapsible=0;childLayout=tableLayout;fontSize=16;" vertex="1" parent="1">
          <mxGeometry x="45" y="450" width="780" height="140.00000000000023" as="geometry" />
        </mxCell>
        <mxCell id="QL7Y_fwGTgnzgYnjwM4z-3" value="" style="shape=tableRow;horizontal=0;startSize=0;swimlaneHead=0;swimlaneBody=0;strokeColor=inherit;top=0;left=0;bottom=0;right=0;collapsible=0;dropTarget=0;fillColor=none;points=[[0,0.5],[1,0.5]];portConstraint=eastwest;fontSize=16;" vertex="1" parent="QL7Y_fwGTgnzgYnjwM4z-2">
          <mxGeometry width="780" height="40" as="geometry" />
        </mxCell>
        <mxCell id="QL7Y_fwGTgnzgYnjwM4z-4" value="Nome" style="shape=partialRectangle;html=1;whiteSpace=wrap;connectable=0;strokeColor=inherit;overflow=hidden;fillColor=none;top=0;left=0;bottom=0;right=0;pointerEvents=1;fontSize=12;align=left;fontStyle=1" vertex="1" parent="QL7Y_fwGTgnzgYnjwM4z-3">
          <mxGeometry width="195" height="40" as="geometry">
            <mxRectangle width="195" height="40" as="alternateBounds" />
          </mxGeometry>
        </mxCell>
        <mxCell id="QL7Y_fwGTgnzgYnjwM4z-5" value="&lt;b&gt;Descrizione&lt;/b&gt;" style="shape=partialRectangle;html=1;whiteSpace=wrap;connectable=0;strokeColor=inherit;overflow=hidden;fillColor=none;top=0;left=0;bottom=0;right=0;pointerEvents=1;fontSize=12;align=left;" vertex="1" parent="QL7Y_fwGTgnzgYnjwM4z-3">
          <mxGeometry x="195" width="195" height="40" as="geometry">
            <mxRectangle width="195" height="40" as="alternateBounds" />
          </mxGeometry>
        </mxCell>
        <mxCell id="QL7Y_fwGTgnzgYnjwM4z-6" value="Attributi" style="shape=partialRectangle;html=1;whiteSpace=wrap;connectable=0;strokeColor=inherit;overflow=hidden;fillColor=none;top=0;left=0;bottom=0;right=0;pointerEvents=1;fontSize=12;fontStyle=1;align=left;" vertex="1" parent="QL7Y_fwGTgnzgYnjwM4z-3">
          <mxGeometry x="390" width="195" height="40" as="geometry">
            <mxRectangle width="195" height="40" as="alternateBounds" />
          </mxGeometry>
        </mxCell>
        <mxCell id="QL7Y_fwGTgnzgYnjwM4z-7" value="Identificatori" style="shape=partialRectangle;html=1;whiteSpace=wrap;connectable=0;strokeColor=inherit;overflow=hidden;fillColor=none;top=0;left=0;bottom=0;right=0;pointerEvents=1;fontSize=12;fontStyle=1;align=left;" vertex="1" parent="QL7Y_fwGTgnzgYnjwM4z-3">
          <mxGeometry x="585" width="195" height="40" as="geometry">
            <mxRectangle width="195" height="40" as="alternateBounds" />
          </mxGeometry>
        </mxCell>
        <mxCell id="QL7Y_fwGTgnzgYnjwM4z-8" value="" style="shape=tableRow;horizontal=0;startSize=0;swimlaneHead=0;swimlaneBody=0;strokeColor=inherit;top=0;left=0;bottom=0;right=0;collapsible=0;dropTarget=0;fillColor=none;points=[[0,0.5],[1,0.5]];portConstraint=eastwest;fontSize=16;" vertex="1" parent="QL7Y_fwGTgnzgYnjwM4z-2">
          <mxGeometry y="40" width="780" height="60" as="geometry" />
        </mxCell>
        <mxCell id="QL7Y_fwGTgnzgYnjwM4z-9" value="Cinema" style="shape=partialRectangle;html=1;whiteSpace=wrap;connectable=0;strokeColor=inherit;overflow=hidden;fillColor=none;top=0;left=0;bottom=0;right=0;pointerEvents=1;fontSize=12;align=left;" vertex="1" parent="QL7Y_fwGTgnzgYnjwM4z-8">
          <mxGeometry width="195" height="60" as="geometry">
            <mxRectangle width="195" height="60" as="alternateBounds" />
          </mxGeometry>
        </mxCell>
        <mxCell id="QL7Y_fwGTgnzgYnjwM4z-10" value="&lt;font style=&quot;font-size: 12px;&quot;&gt;Contiene tutti le strutture&lt;/font&gt;" style="shape=partialRectangle;html=1;whiteSpace=wrap;connectable=0;strokeColor=inherit;overflow=hidden;fillColor=none;top=0;left=0;bottom=0;right=0;pointerEvents=1;fontSize=16;align=left;" vertex="1" parent="QL7Y_fwGTgnzgYnjwM4z-8">
          <mxGeometry x="195" width="195" height="60" as="geometry">
            <mxRectangle width="195" height="60" as="alternateBounds" />
          </mxGeometry>
        </mxCell>
        <mxCell id="QL7Y_fwGTgnzgYnjwM4z-11" value="" style="shape=partialRectangle;html=1;whiteSpace=wrap;connectable=0;strokeColor=inherit;overflow=hidden;fillColor=none;top=0;left=0;bottom=0;right=0;pointerEvents=1;fontSize=12;align=left;" vertex="1" parent="QL7Y_fwGTgnzgYnjwM4z-8">
          <mxGeometry x="390" width="195" height="60" as="geometry">
            <mxRectangle width="195" height="60" as="alternateBounds" />
          </mxGeometry>
        </mxCell>
        <mxCell id="QL7Y_fwGTgnzgYnjwM4z-12" value="titolo" style="shape=partialRectangle;html=1;whiteSpace=wrap;connectable=0;strokeColor=inherit;overflow=hidden;fillColor=none;top=0;left=0;bottom=0;right=0;pointerEvents=1;fontSize=12;align=left;" vertex="1" parent="QL7Y_fwGTgnzgYnjwM4z-8">
          <mxGeometry x="585" width="195" height="60" as="geometry">
            <mxRectangle width="195" height="60" as="alternateBounds" />
          </mxGeometry>
        </mxCell>
        <mxCell id="QL7Y_fwGTgnzgYnjwM4z-13" value="" style="shape=tableRow;horizontal=0;startSize=0;swimlaneHead=0;swimlaneBody=0;strokeColor=inherit;top=0;left=0;bottom=0;right=0;collapsible=0;dropTarget=0;fillColor=none;points=[[0,0.5],[1,0.5]];portConstraint=eastwest;fontSize=16;" vertex="1" parent="QL7Y_fwGTgnzgYnjwM4z-2">
          <mxGeometry y="100" width="780" height="40" as="geometry" />
        </mxCell>
        <mxCell id="QL7Y_fwGTgnzgYnjwM4z-14" value="&lt;font style=&quot;font-size: 12px;&quot;&gt;Sale&lt;/font&gt;" style="shape=partialRectangle;html=1;whiteSpace=wrap;connectable=0;strokeColor=inherit;overflow=hidden;fillColor=none;top=0;left=0;bottom=0;right=0;pointerEvents=1;fontSize=16;align=left;" vertex="1" parent="QL7Y_fwGTgnzgYnjwM4z-13">
          <mxGeometry width="195" height="40" as="geometry">
            <mxRectangle width="195" height="40" as="alternateBounds" />
          </mxGeometry>
        </mxCell>
        <mxCell id="QL7Y_fwGTgnzgYnjwM4z-15" value="Contiene tutti le sale" style="shape=partialRectangle;html=1;whiteSpace=wrap;connectable=0;strokeColor=inherit;overflow=hidden;fillColor=none;top=0;left=0;bottom=0;right=0;pointerEvents=1;fontSize=12;align=left;" vertex="1" parent="QL7Y_fwGTgnzgYnjwM4z-13">
          <mxGeometry x="195" width="195" height="40" as="geometry">
            <mxRectangle width="195" height="40" as="alternateBounds" />
          </mxGeometry>
        </mxCell>
        <mxCell id="QL7Y_fwGTgnzgYnjwM4z-16" value="" style="shape=partialRectangle;html=1;whiteSpace=wrap;connectable=0;strokeColor=inherit;overflow=hidden;fillColor=none;top=0;left=0;bottom=0;right=0;pointerEvents=1;fontSize=16;" vertex="1" parent="QL7Y_fwGTgnzgYnjwM4z-13">
          <mxGeometry x="390" width="195" height="40" as="geometry">
            <mxRectangle width="195" height="40" as="alternateBounds" />
          </mxGeometry>
        </mxCell>
        <mxCell id="QL7Y_fwGTgnzgYnjwM4z-17" value="{nome sala, nome cinema} è un identificatore composto" style="shape=partialRectangle;html=1;whiteSpace=wrap;connectable=0;strokeColor=inherit;overflow=hidden;fillColor=none;top=0;left=0;bottom=0;right=0;pointerEvents=1;fontSize=12;align=left;" vertex="1" parent="QL7Y_fwGTgnzgYnjwM4z-13">
          <mxGeometry x="585" width="195" height="40" as="geometry">
            <mxRectangle width="195" height="40" as="alternateBounds" />
          </mxGeometry>
        </mxCell>
        <mxCell id="QL7Y_fwGTgnzgYnjwM4z-18" value="&lt;h1 style=&quot;margin-top: 0px;&quot;&gt;Dizionario delle associazioni&lt;/h1&gt;" style="text;html=1;whiteSpace=wrap;overflow=hidden;rounded=0;" vertex="1" parent="1">
          <mxGeometry x="40" y="600" width="520" height="40" as="geometry" />
        </mxCell>
        <mxCell id="QL7Y_fwGTgnzgYnjwM4z-19" value="" style="shape=table;startSize=0;container=1;collapsible=0;childLayout=tableLayout;fontSize=16;" vertex="1" parent="1">
          <mxGeometry x="45" y="640" width="780" height="100.00000000000023" as="geometry" />
        </mxCell>
        <mxCell id="QL7Y_fwGTgnzgYnjwM4z-20" value="" style="shape=tableRow;horizontal=0;startSize=0;swimlaneHead=0;swimlaneBody=0;strokeColor=inherit;top=0;left=0;bottom=0;right=0;collapsible=0;dropTarget=0;fillColor=none;points=[[0,0.5],[1,0.5]];portConstraint=eastwest;fontSize=16;" vertex="1" parent="QL7Y_fwGTgnzgYnjwM4z-19">
          <mxGeometry width="780" height="40" as="geometry" />
        </mxCell>
        <mxCell id="QL7Y_fwGTgnzgYnjwM4z-21" value="Nome" style="shape=partialRectangle;html=1;whiteSpace=wrap;connectable=0;strokeColor=inherit;overflow=hidden;fillColor=none;top=0;left=0;bottom=0;right=0;pointerEvents=1;fontSize=12;align=left;fontStyle=1" vertex="1" parent="QL7Y_fwGTgnzgYnjwM4z-20">
          <mxGeometry width="195" height="40" as="geometry">
            <mxRectangle width="195" height="40" as="alternateBounds" />
          </mxGeometry>
        </mxCell>
        <mxCell id="QL7Y_fwGTgnzgYnjwM4z-22" value="&lt;b&gt;Descrizione&lt;/b&gt;" style="shape=partialRectangle;html=1;whiteSpace=wrap;connectable=0;strokeColor=inherit;overflow=hidden;fillColor=none;top=0;left=0;bottom=0;right=0;pointerEvents=1;fontSize=12;align=left;" vertex="1" parent="QL7Y_fwGTgnzgYnjwM4z-20">
          <mxGeometry x="195" width="195" height="40" as="geometry">
            <mxRectangle width="195" height="40" as="alternateBounds" />
          </mxGeometry>
        </mxCell>
        <mxCell id="QL7Y_fwGTgnzgYnjwM4z-23" value="Attributi" style="shape=partialRectangle;html=1;whiteSpace=wrap;connectable=0;strokeColor=inherit;overflow=hidden;fillColor=none;top=0;left=0;bottom=0;right=0;pointerEvents=1;fontSize=12;fontStyle=1;align=left;" vertex="1" parent="QL7Y_fwGTgnzgYnjwM4z-20">
          <mxGeometry x="390" width="195" height="40" as="geometry">
            <mxRectangle width="195" height="40" as="alternateBounds" />
          </mxGeometry>
        </mxCell>
        <mxCell id="QL7Y_fwGTgnzgYnjwM4z-24" value="Entità collegate" style="shape=partialRectangle;html=1;whiteSpace=wrap;connectable=0;strokeColor=inherit;overflow=hidden;fillColor=none;top=0;left=0;bottom=0;right=0;pointerEvents=1;fontSize=12;fontStyle=1;align=left;" vertex="1" parent="QL7Y_fwGTgnzgYnjwM4z-20">
          <mxGeometry x="585" width="195" height="40" as="geometry">
            <mxRectangle width="195" height="40" as="alternateBounds" />
          </mxGeometry>
        </mxCell>
        <mxCell id="QL7Y_fwGTgnzgYnjwM4z-25" value="" style="shape=tableRow;horizontal=0;startSize=0;swimlaneHead=0;swimlaneBody=0;strokeColor=inherit;top=0;left=0;bottom=0;right=0;collapsible=0;dropTarget=0;fillColor=none;points=[[0,0.5],[1,0.5]];portConstraint=eastwest;fontSize=16;" vertex="1" parent="QL7Y_fwGTgnzgYnjwM4z-19">
          <mxGeometry y="40" width="780" height="60" as="geometry" />
        </mxCell>
        <mxCell id="QL7Y_fwGTgnzgYnjwM4z-26" value="possiede" style="shape=partialRectangle;html=1;whiteSpace=wrap;connectable=0;strokeColor=inherit;overflow=hidden;fillColor=none;top=0;left=0;bottom=0;right=0;pointerEvents=1;fontSize=12;align=left;" vertex="1" parent="QL7Y_fwGTgnzgYnjwM4z-25">
          <mxGeometry width="195" height="60" as="geometry">
            <mxRectangle width="195" height="60" as="alternateBounds" />
          </mxGeometry>
        </mxCell>
        <mxCell id="QL7Y_fwGTgnzgYnjwM4z-27" value="&lt;span style=&quot;font-size: 12px;&quot;&gt;Mette in relazione i cinema con le sale&lt;/span&gt;" style="shape=partialRectangle;html=1;whiteSpace=wrap;connectable=0;strokeColor=inherit;overflow=hidden;fillColor=none;top=0;left=0;bottom=0;right=0;pointerEvents=1;fontSize=16;align=left;" vertex="1" parent="QL7Y_fwGTgnzgYnjwM4z-25">
          <mxGeometry x="195" width="195" height="60" as="geometry">
            <mxRectangle width="195" height="60" as="alternateBounds" />
          </mxGeometry>
        </mxCell>
        <mxCell id="QL7Y_fwGTgnzgYnjwM4z-28" value="" style="shape=partialRectangle;html=1;whiteSpace=wrap;connectable=0;strokeColor=inherit;overflow=hidden;fillColor=none;top=0;left=0;bottom=0;right=0;pointerEvents=1;fontSize=12;align=left;" vertex="1" parent="QL7Y_fwGTgnzgYnjwM4z-25">
          <mxGeometry x="390" width="195" height="60" as="geometry">
            <mxRectangle width="195" height="60" as="alternateBounds" />
          </mxGeometry>
        </mxCell>
        <mxCell id="QL7Y_fwGTgnzgYnjwM4z-29" value="cinema, sale" style="shape=partialRectangle;html=1;whiteSpace=wrap;connectable=0;strokeColor=inherit;overflow=hidden;fillColor=none;top=0;left=0;bottom=0;right=0;pointerEvents=1;fontSize=12;align=left;" vertex="1" parent="QL7Y_fwGTgnzgYnjwM4z-25">
          <mxGeometry x="585" width="195" height="60" as="geometry">
            <mxRectangle width="195" height="60" as="alternateBounds" />
          </mxGeometry>
        </mxCell>
        <mxCell id="-_FObP9JeGKTe-bqmQgZ-1" value="&lt;h1 style=&quot;margin-top: 0px;&quot;&gt;&lt;span style=&quot;background-color: transparent; color: light-dark(rgb(0, 0, 0), rgb(255, 255, 255));&quot;&gt;Vincoli&lt;/span&gt;&lt;/h1&gt;&lt;div&gt;&lt;span style=&quot;background-color: transparent; color: light-dark(rgb(0, 0, 0), rgb(255, 255, 255));&quot;&gt;V1: ogni cinema deve possedere almeno una sala&lt;/span&gt;&lt;/div&gt;" style="text;html=1;whiteSpace=wrap;overflow=hidden;rounded=0;" vertex="1" parent="1">
          <mxGeometry x="40" y="320" width="390" height="80" as="geometry" />
        </mxCell>
      </root>
    </mxGraphModel>
  </diagram>
  <diagram id="ndEyftPJ0s-4UivXeJKk" name="Page-3">
    <mxGraphModel dx="945" dy="571" grid="1" gridSize="10" guides="1" tooltips="1" connect="1" arrows="1" fold="1" page="1" pageScale="1" pageWidth="850" pageHeight="1100" math="0" shadow="0">
      <root>
        <mxCell id="0" />
        <mxCell id="1" parent="0" />
      </root>
    </mxGraphModel>
  </diagram>
  <diagram id="HIMUeJtdiO78zuvZQd-g" name="Page-4">
    <mxGraphModel grid="1" page="1" gridSize="10" guides="1" tooltips="1" connect="1" arrows="1" fold="1" pageScale="1" pageWidth="850" pageHeight="1100" math="0" shadow="0">
      <root>
        <mxCell id="0" />
        <mxCell id="1" parent="0" />
      </root>
    </mxGraphModel>
  </diagram>
  <diagram id="0aKFNm6vIeiwMtSZY8fW" name="Page-5">
    <mxGraphModel grid="1" page="1" gridSize="10" guides="1" tooltips="1" connect="1" arrows="1" fold="1" pageScale="1" pageWidth="850" pageHeight="1100" math="0" shadow="0">
      <root>
        <mxCell id="0" />
        <mxCell id="1" parent="0" />
      </root>
    </mxGraphModel>
  </diagram>
  <diagram id="d7-2eDF1bqs4kCWXwkkR" name="Page-6">
    <mxGraphModel grid="1" page="1" gridSize="10" guides="1" tooltips="1" connect="1" arrows="1" fold="1" pageScale="1" pageWidth="850" pageHeight="1100" math="0" shadow="0">
      <root>
        <mxCell id="0" />
        <mxCell id="1" parent="0" />
      </root>
    </mxGraphModel>
  </diagram>
</mxfile>
